<svg xmlns="http://www.w3.org/2000/svg" xmlns:xlink="http://www.w3.org/1999/xlink" width="500" zoomAndPan="magnify" viewBox="0 0 375 374.999991" height="500" preserveAspectRatio="xMidYMid meet" version="1.0"><defs><g/><clipPath id="7b796c31c3"><path d="M 290 142.097656 L 349 142.097656 L 349 205 L 290 205 Z M 290 142.097656 " clip-rule="nonzero"/></clipPath></defs><rect x="-37.5" width="450" fill="#ffffff" y="-37.499999" height="449.999989" fill-opacity="1"/><rect x="-37.5" width="450" fill="#345e7d" y="-37.499999" height="449.999989" fill-opacity="1"/><g clip-path="url(#7b796c31c3)"><path fill="#ffffff" d="M 327.6875 147.808594 L 331.402344 142.578125 L 330.003906 142.097656 L 324.585938 147.050781 C 322.882812 146.734375 321.121094 146.558594 319.304688 146.550781 C 317.328125 146.578125 317.328125 149.496094 319.304688 149.523438 C 320.808594 149.523438 322.308594 149.648438 323.785156 149.898438 L 324.910156 156.777344 L 326.3125 157.265625 L 326.648438 150.554688 C 330.109375 151.535156 333.375 153.199219 336.183594 155.484375 C 353.398438 169.757812 346.546875 197.382812 324.75 202.1875 C 302.480469 206.691406 284.988281 183.84375 295.035156 163.503906 C 296.449219 160.699219 298.355469 158.148438 300.621094 155.972656 C 300.835938 155.769531 300.847656 155.433594 300.648438 155.214844 C 300.445312 154.996094 300.101562 154.988281 299.890625 155.191406 C 295.09375 159.644531 291.863281 165.785156 291.042969 172.296875 C 288.550781 190.621094 304.3125 206.597656 322.679688 204.476562 C 331.796875 203.492188 340.222656 197.886719 344.683594 189.84375 C 353.972656 173.128906 344.671875 152.988281 327.6875 147.808594 Z M 327.6875 147.808594 " fill-opacity="1" fill-rule="nonzero"/></g><g fill="#ffffff" fill-opacity="1"><g transform="translate(9.582627, 198.57446)"><g><path d="M 41.578125 -10.453125 C 39.125 -4.40625 33.734375 -0.90625 28.421875 -0.90625 C 23.765625 -0.90625 20.5 -3.4375 18.78125 -5.71875 C 15.515625 -10.125 15.4375 -14.859375 15.4375 -21 L 15.4375 -33.65625 C 15.4375 -41.5 16.75 -45.5 19.28125 -48.359375 C 21.640625 -51.046875 24.671875 -52.609375 28.515625 -52.609375 C 32.671875 -52.609375 36.109375 -50.734375 38.234375 -47.78125 C 40.765625 -44.359375 41.578125 -40.6875 41.578125 -33 Z M 51.296875 -29.484375 C 51.296875 -37.328125 49.578125 -42.390625 45.09375 -47.296875 C 40.921875 -51.796875 34.546875 -54.328125 28.515625 -54.328125 C 18.625 -54.328125 9.71875 -48.03125 6.9375 -38.890625 C 5.96875 -35.78125 5.71875 -33.25 5.71875 -29.734375 L 5.71875 -23.765625 C 5.71875 -16.671875 7.671875 -11.03125 11.59375 -6.609375 C 15.515625 -2.203125 21.640625 0.8125 28.015625 0.8125 C 33.8125 0.8125 39.125 -2.453125 41.65625 -6.78125 L 41.65625 0 L 56.9375 0 L 56.9375 -1.71875 L 51.296875 -1.71875 Z M 51.296875 -29.484375 "/></g></g></g><g fill="#ffffff" fill-opacity="1"><g transform="translate(69.543139, 198.57446)"><g><path d="M 44.515625 -20.5 C 44.515625 -12.828125 43.703125 -9.15625 41.171875 -5.71875 C 39.046875 -2.78125 35.609375 -0.90625 31.453125 -0.90625 C 27.609375 -0.90625 24.59375 -2.453125 22.21875 -5.140625 C 19.6875 -8 18.375 -12.015625 18.375 -19.84375 L 18.375 -43.046875 C 20.828125 -49.09375 26.21875 -52.609375 31.53125 -52.609375 C 36.1875 -52.609375 39.453125 -50.078125 41.171875 -47.78125 C 44.4375 -43.375 44.515625 -38.640625 44.515625 -32.515625 Z M 8.65625 -23.765625 C 8.65625 -20.265625 8.90625 -17.71875 9.890625 -14.625 C 12.65625 -5.46875 21.5625 0.8125 31.453125 0.8125 C 37.5 0.8125 43.859375 -1.71875 48.03125 -6.203125 C 52.53125 -11.109375 54.234375 -16.171875 54.234375 -24.015625 L 54.234375 -29.734375 C 54.234375 -36.84375 52.28125 -42.484375 48.359375 -46.890625 C 44.4375 -51.296875 38.3125 -54.328125 31.9375 -54.328125 C 26.140625 -54.328125 20.90625 -51.046875 18.375 -46.71875 L 18.375 -75.15625 L 3.015625 -75.15625 L 3.015625 -73.4375 L 8.65625 -73.4375 Z M 8.65625 -23.765625 "/></g></g></g><g fill="#ffffff" fill-opacity="1"><g transform="translate(129.503652, 198.57446)"><g><path d="M 19.84375 -53.59375 L 4.5 -53.59375 L 4.5 -51.875 L 10.125 -51.875 L 10.125 -1.71875 L 4.5 -1.71875 L 4.5 0 L 25.984375 0 L 25.984375 -1.71875 L 19.84375 -1.71875 L 19.84375 -44.84375 C 22.375 -49.421875 26.625 -52.53125 29.984375 -52.53125 C 30.796875 -52.53125 31.375 -52.359375 31.53125 -52.28125 C 28.921875 -51.953125 26.953125 -49.578125 26.953125 -46.8125 C 26.953125 -43.546875 29.40625 -41.09375 32.671875 -41.09375 C 36.03125 -41.09375 38.46875 -43.703125 38.46875 -47.140625 C 38.46875 -51.21875 35.125 -54.328125 30.546875 -54.328125 C 26.296875 -54.328125 22.140625 -51.375 19.84375 -47.703125 Z M 19.84375 -53.59375 "/></g></g></g><g fill="#ffffff" fill-opacity="1"><g transform="translate(167.979678, 198.57446)"><g><path d="M 41.578125 -10.453125 C 39.125 -4.40625 33.734375 -0.90625 28.421875 -0.90625 C 23.765625 -0.90625 20.5 -3.4375 18.78125 -5.71875 C 15.515625 -10.125 15.4375 -14.859375 15.4375 -21 L 15.4375 -33.65625 C 15.4375 -41.5 16.75 -45.5 19.28125 -48.359375 C 21.640625 -51.046875 24.671875 -52.609375 28.515625 -52.609375 C 32.671875 -52.609375 36.109375 -50.734375 38.234375 -47.78125 C 40.765625 -44.359375 41.578125 -40.6875 41.578125 -33 Z M 51.296875 -29.484375 C 51.296875 -37.328125 49.578125 -42.390625 45.09375 -47.296875 C 40.921875 -51.796875 34.546875 -54.328125 28.515625 -54.328125 C 18.625 -54.328125 9.71875 -48.03125 6.9375 -38.890625 C 5.96875 -35.78125 5.71875 -33.25 5.71875 -29.734375 L 5.71875 -23.765625 C 5.71875 -16.671875 7.671875 -11.03125 11.59375 -6.609375 C 15.515625 -2.203125 21.640625 0.8125 28.015625 0.8125 C 33.8125 0.8125 39.125 -2.453125 41.65625 -6.78125 L 41.65625 0 L 56.9375 0 L 56.9375 -1.71875 L 51.296875 -1.71875 Z M 51.296875 -29.484375 "/></g></g></g><g fill="#ffffff" fill-opacity="1"><g transform="translate(227.94019, 198.57446)"><g><path d="M 41.578125 -10.453125 C 39.125 -4.40625 33.734375 -0.90625 28.421875 -0.90625 C 23.765625 -0.90625 20.5 -3.4375 18.78125 -5.71875 C 15.515625 -10.125 15.4375 -14.859375 15.4375 -21 L 15.4375 -33.65625 C 15.4375 -41.5 16.75 -45.5 19.28125 -48.359375 C 21.640625 -51.046875 24.671875 -52.609375 28.515625 -52.609375 C 32.671875 -52.609375 36.109375 -50.734375 38.234375 -47.78125 C 40.765625 -44.359375 41.578125 -40.6875 41.578125 -33 Z M 51.296875 -29.484375 C 51.296875 -37.328125 49.578125 -42.390625 45.09375 -47.296875 C 40.921875 -51.796875 34.546875 -54.328125 28.515625 -54.328125 C 18.625 -54.328125 9.71875 -48.03125 6.9375 -38.890625 C 5.96875 -35.78125 5.71875 -33.25 5.71875 -29.734375 L 5.71875 -23.765625 C 5.71875 -16.671875 7.671875 -11.03125 11.59375 -6.609375 C 15.515625 -2.203125 21.640625 0.8125 28.015625 0.8125 C 33.8125 0.8125 39.125 -2.453125 41.65625 -6.78125 L 41.65625 3.671875 C 41.65625 9.3125 41.421875 10.953125 40.4375 13.3125 C 39.53125 15.4375 38.140625 17.234375 36.4375 18.46875 C 34.390625 19.9375 31.28125 20.828125 28.515625 20.828125 C 23.03125 20.828125 18.46875 18.046875 16.671875 13.5625 C 17.640625 14.375 18.875 14.703125 20.015625 14.703125 C 23.203125 14.703125 25.484375 12.5 25.484375 9.234375 C 25.484375 6.125 22.953125 3.671875 19.9375 3.671875 C 16.578125 3.671875 14.046875 6.53125 14.046875 10.203125 C 14.046875 17.15625 20.421875 22.46875 28.828125 22.46875 C 38.640625 22.46875 47.953125 15.4375 50.15625 6.609375 C 50.96875 3.34375 51.296875 -0.484375 51.296875 -7.03125 Z M 51.296875 -29.484375 "/></g></g></g><g fill="#fefefe" fill-opacity="1"><g transform="translate(78.5118, 219.113878)"><g><path d="M 2.765625 -1.25 C 3.109375 -1.007812 3.554688 -0.890625 4.109375 -0.890625 C 5.378906 -0.890625 6.015625 -1.367188 6.015625 -2.328125 C 6.015625 -2.878906 5.5625 -3.300781 4.65625 -3.59375 C 4.269531 -3.726562 3.859375 -3.847656 3.421875 -3.953125 C 2.972656 -4.054688 2.554688 -4.195312 2.171875 -4.375 C 1.710938 -4.582031 1.375 -4.847656 1.15625 -5.171875 C 0.925781 -5.484375 0.8125 -5.859375 0.8125 -6.296875 C 0.8125 -7.171875 1.117188 -7.828125 1.734375 -8.265625 C 2.335938 -8.710938 3.066406 -8.9375 3.921875 -8.9375 C 4.765625 -8.9375 5.460938 -8.765625 6.015625 -8.421875 C 6.578125 -8.078125 6.957031 -7.460938 7.15625 -6.578125 L 5.671875 -6.578125 C 5.503906 -7.066406 5.269531 -7.390625 4.96875 -7.546875 C 4.675781 -7.710938 4.3125 -7.796875 3.875 -7.796875 C 3.4375 -7.796875 3.066406 -7.703125 2.765625 -7.515625 C 2.441406 -7.316406 2.28125 -7.023438 2.28125 -6.640625 C 2.28125 -6.242188 2.414062 -5.953125 2.6875 -5.765625 C 2.9375 -5.585938 3.253906 -5.4375 3.640625 -5.3125 C 4.023438 -5.1875 4.441406 -5.078125 4.890625 -4.984375 C 5.328125 -4.878906 5.742188 -4.734375 6.140625 -4.546875 C 7.046875 -4.128906 7.5 -3.445312 7.5 -2.5 C 7.5 -1.5625 7.160156 -0.867188 6.484375 -0.421875 C 6.140625 -0.191406 5.757812 -0.0195312 5.34375 0.09375 C 4.945312 0.207031 4.507812 0.265625 4.03125 0.265625 C 2.007812 0.265625 0.84375 -0.632812 0.53125 -2.4375 L 2 -2.4375 C 2.144531 -1.875 2.398438 -1.476562 2.765625 -1.25 Z M 2.765625 -1.25 "/></g></g></g><g fill="#fefefe" fill-opacity="1"><g transform="translate(86.50155, 219.113878)"><g><path d="M 2.90625 -11.765625 C 3.070312 -11.585938 3.15625 -11.382812 3.15625 -11.15625 C 3.15625 -10.894531 3.070312 -10.679688 2.90625 -10.515625 C 2.726562 -10.335938 2.519531 -10.25 2.28125 -10.25 C 2.03125 -10.25 1.820312 -10.335938 1.65625 -10.515625 C 1.476562 -10.679688 1.390625 -10.894531 1.390625 -11.15625 C 1.390625 -11.382812 1.476562 -11.585938 1.65625 -11.765625 C 1.820312 -11.941406 2.03125 -12.03125 2.28125 -12.03125 C 2.519531 -12.03125 2.726562 -11.941406 2.90625 -11.765625 Z M 2.984375 0 L 1.59375 0 L 1.59375 -8.75 L 2.984375 -8.75 Z M 2.984375 0 "/></g></g></g><g fill="#fefefe" fill-opacity="1"><g transform="translate(91.052922, 219.113878)"><g><path d="M 12.578125 -0.046875 L 12.578125 -5.5 C 12.578125 -6.40625 12.289062 -7.039062 11.71875 -7.40625 C 11.519531 -7.53125 11.21875 -7.59375 10.8125 -7.59375 C 10.40625 -7.59375 10.019531 -7.472656 9.65625 -7.234375 C 9.300781 -6.992188 9.015625 -6.6875 8.796875 -6.3125 C 8.722656 -6.175781 8.65625 -6.019531 8.59375 -5.84375 C 8.59375 -5.738281 8.59375 -5.625 8.59375 -5.5 L 8.59375 -0.046875 L 7.1875 -0.046875 L 7.1875 -5.5 C 7.1875 -6.40625 6.90625 -7.039062 6.34375 -7.40625 C 6.144531 -7.53125 5.835938 -7.59375 5.421875 -7.59375 C 5.015625 -7.59375 4.628906 -7.472656 4.265625 -7.234375 C 3.910156 -6.992188 3.628906 -6.6875 3.421875 -6.3125 C 3.140625 -5.820312 2.957031 -5.222656 2.875 -4.515625 L 2.875 -0.046875 L 1.484375 -0.046875 L 1.484375 -8.78125 L 2.875 -8.78125 L 2.875 -7.390625 C 3.144531 -7.835938 3.476562 -8.203125 3.875 -8.484375 C 4.320312 -8.816406 4.851562 -8.984375 5.46875 -8.984375 C 6.070312 -8.984375 6.5625 -8.890625 6.9375 -8.703125 C 7.3125 -8.503906 7.625 -8.25 7.875 -7.9375 C 8 -7.75 8.117188 -7.539062 8.234375 -7.3125 C 8.492188 -7.789062 8.835938 -8.179688 9.265625 -8.484375 C 9.710938 -8.816406 10.242188 -8.984375 10.859375 -8.984375 C 11.460938 -8.984375 11.953125 -8.890625 12.328125 -8.703125 C 12.691406 -8.503906 13 -8.25 13.25 -7.9375 C 13.726562 -7.3125 13.96875 -6.5 13.96875 -5.5 L 13.96875 -0.046875 Z M 12.578125 -0.046875 "/></g></g></g><g fill="#fefefe" fill-opacity="1"><g transform="translate(106.217532, 219.113878)"><g><path d="M 2.875 4.96875 L 1.484375 4.96875 L 1.484375 -8.75 L 2.875 -8.75 L 2.875 -7.25 C 2.957031 -7.351562 3.046875 -7.453125 3.140625 -7.546875 C 3.960938 -8.472656 4.976562 -8.9375 6.1875 -8.9375 C 7.382812 -8.9375 8.398438 -8.472656 9.234375 -7.546875 C 10.035156 -6.648438 10.4375 -5.59375 10.4375 -4.375 C 10.4375 -3.15625 10.035156 -2.09375 9.234375 -1.1875 C 8.398438 -0.257812 7.382812 0.203125 6.1875 0.203125 C 4.976562 0.203125 3.960938 -0.257812 3.140625 -1.1875 C 3.046875 -1.28125 2.957031 -1.378906 2.875 -1.484375 Z M 9.046875 -4.375 C 9.046875 -5.21875 8.753906 -5.957031 8.171875 -6.59375 C 7.578125 -7.226562 6.84375 -7.546875 5.96875 -7.546875 C 5.09375 -7.546875 4.363281 -7.226562 3.78125 -6.59375 C 3.175781 -5.957031 2.875 -5.21875 2.875 -4.375 C 2.875 -3.519531 3.175781 -2.773438 3.78125 -2.140625 C 4.363281 -1.503906 5.09375 -1.1875 5.96875 -1.1875 C 6.84375 -1.1875 7.578125 -1.503906 8.171875 -2.140625 C 8.753906 -2.773438 9.046875 -3.519531 9.046875 -4.375 Z M 9.046875 -4.375 "/></g></g></g><g fill="#fefefe" fill-opacity="1"><g transform="translate(117.546278, 219.113878)"><g><path d="M 2.875 0 L 1.484375 0 L 1.484375 -14.90625 L 2.875 -14.90625 Z M 2.875 0 "/></g></g></g><g fill="#fefefe" fill-opacity="1"><g transform="translate(121.918779, 219.113878)"><g><path d="M 2.90625 -11.765625 C 3.070312 -11.585938 3.15625 -11.382812 3.15625 -11.15625 C 3.15625 -10.894531 3.070312 -10.679688 2.90625 -10.515625 C 2.726562 -10.335938 2.519531 -10.25 2.28125 -10.25 C 2.03125 -10.25 1.820312 -10.335938 1.65625 -10.515625 C 1.476562 -10.679688 1.390625 -10.894531 1.390625 -11.15625 C 1.390625 -11.382812 1.476562 -11.585938 1.65625 -11.765625 C 1.820312 -11.941406 2.03125 -12.03125 2.28125 -12.03125 C 2.519531 -12.03125 2.726562 -11.941406 2.90625 -11.765625 Z M 2.984375 0 L 1.59375 0 L 1.59375 -8.75 L 2.984375 -8.75 Z M 2.984375 0 "/></g></g></g><g fill="#fefefe" fill-opacity="1"><g transform="translate(126.470152, 219.113878)"><g><path d="M 6.1875 -13.609375 L 4.984375 -13.609375 C 4.523438 -13.609375 4.222656 -13.503906 4.078125 -13.296875 C 3.929688 -13.085938 3.859375 -12.828125 3.859375 -12.515625 L 3.859375 -8.75 L 6.1875 -8.75 L 6.1875 -7.453125 L 3.859375 -7.453125 L 3.859375 0 L 2.46875 0 L 2.46875 -7.453125 L 0.703125 -7.453125 L 0.703125 -8.75 L 2.46875 -8.75 L 2.46875 -12.125 C 2.46875 -13.007812 2.675781 -13.695312 3.09375 -14.1875 C 3.507812 -14.664062 4.207031 -14.90625 5.1875 -14.90625 L 6.1875 -14.90625 Z M 6.1875 -13.609375 "/></g></g></g><g fill="#fefefe" fill-opacity="1"><g transform="translate(133.247525, 219.113878)"><g><path d="M 2.609375 4.96875 L 0.921875 4.96875 L 3.859375 -1.4375 L 0.203125 -8.75 L 1.78125 -8.75 L 4.59375 -2.875 L 7.09375 -8.75 L 8.640625 -8.75 Z M 2.609375 4.96875 "/></g></g></g><g fill="#fefefe" fill-opacity="1"><g transform="translate(141.694398, 219.113878)"><g/></g></g><g fill="#fefefe" fill-opacity="1"><g transform="translate(147.060646, 219.113878)"><g><path d="M 2.609375 4.96875 L 0.921875 4.96875 L 3.859375 -1.4375 L 0.203125 -8.75 L 1.78125 -8.75 L 4.59375 -2.875 L 7.09375 -8.75 L 8.640625 -8.75 Z M 2.609375 4.96875 "/></g></g></g><g fill="#fefefe" fill-opacity="1"><g transform="translate(155.507518, 219.113878)"><g><path d="M 8.640625 -4.40625 C 8.640625 -5.28125 8.332031 -6.03125 7.71875 -6.65625 C 7.09375 -7.28125 6.34375 -7.59375 5.46875 -7.59375 C 4.59375 -7.59375 3.84375 -7.28125 3.21875 -6.65625 C 2.59375 -6.03125 2.28125 -5.28125 2.28125 -4.40625 C 2.28125 -3.550781 2.59375 -2.8125 3.21875 -2.1875 C 3.84375 -1.5625 4.59375 -1.25 5.46875 -1.25 C 6.34375 -1.25 7.09375 -1.5625 7.71875 -2.1875 C 8.332031 -2.8125 8.640625 -3.550781 8.640625 -4.40625 Z M 10.03125 -4.40625 C 10.03125 -3.132812 9.585938 -2.0625 8.703125 -1.1875 C 7.785156 -0.300781 6.707031 0.140625 5.46875 0.140625 C 4.21875 0.140625 3.144531 -0.300781 2.25 -1.1875 C 1.34375 -2.0625 0.890625 -3.132812 0.890625 -4.40625 C 0.890625 -5.664062 1.34375 -6.75 2.25 -7.65625 C 3.132812 -8.539062 4.207031 -8.984375 5.46875 -8.984375 C 6.726562 -8.984375 7.804688 -8.539062 8.703125 -7.65625 C 9.585938 -6.75 10.03125 -5.664062 10.03125 -4.40625 Z M 10.03125 -4.40625 "/></g></g></g><g fill="#fefefe" fill-opacity="1"><g transform="translate(166.438765, 219.113878)"><g><path d="M 7.53125 -1.484375 C 6.882812 -0.378906 5.910156 0.171875 4.609375 0.171875 C 3.628906 0.171875 2.863281 -0.148438 2.3125 -0.796875 C 1.757812 -1.441406 1.484375 -2.269531 1.484375 -3.28125 L 1.484375 -8.75 L 2.875 -8.75 L 2.875 -3.28125 C 2.875 -2.707031 3.007812 -2.222656 3.28125 -1.828125 C 3.53125 -1.421875 3.953125 -1.21875 4.546875 -1.21875 C 5.640625 -1.21875 6.410156 -1.5625 6.859375 -2.25 C 7.304688 -2.925781 7.53125 -3.875 7.53125 -5.09375 L 7.53125 -8.75 L 8.921875 -8.75 L 8.921875 0 L 7.53125 0 Z M 7.53125 -1.484375 "/></g></g></g><g fill="#fefefe" fill-opacity="1"><g transform="translate(176.555136, 219.113878)"><g><path d="M 5.984375 -6.9375 C 5.660156 -7.226562 5.316406 -7.375 4.953125 -7.375 C 4.585938 -7.375 4.28125 -7.273438 4.03125 -7.078125 C 3.769531 -6.859375 3.550781 -6.601562 3.375 -6.3125 C 3.039062 -5.738281 2.875 -5.09375 2.875 -4.375 L 2.875 0 L 1.484375 0 L 1.484375 -8.75 L 2.875 -8.75 L 2.875 -6.9375 L 2.9375 -7.296875 C 3.40625 -8.378906 4.128906 -8.921875 5.109375 -8.921875 C 5.410156 -8.921875 5.703125 -8.863281 5.984375 -8.75 Z M 5.984375 -6.9375 "/></g></g></g><g fill="#fefefe" fill-opacity="1"><g transform="translate(182.736261, 219.113878)"><g/></g></g><g fill="#fefefe" fill-opacity="1"><g transform="translate(188.10251, 219.113878)"><g><path d="M 2.765625 -1.25 C 3.109375 -1.007812 3.554688 -0.890625 4.109375 -0.890625 C 5.378906 -0.890625 6.015625 -1.367188 6.015625 -2.328125 C 6.015625 -2.878906 5.5625 -3.300781 4.65625 -3.59375 C 4.269531 -3.726562 3.859375 -3.847656 3.421875 -3.953125 C 2.972656 -4.054688 2.554688 -4.195312 2.171875 -4.375 C 1.710938 -4.582031 1.375 -4.847656 1.15625 -5.171875 C 0.925781 -5.484375 0.8125 -5.859375 0.8125 -6.296875 C 0.8125 -7.171875 1.117188 -7.828125 1.734375 -8.265625 C 2.335938 -8.710938 3.066406 -8.9375 3.921875 -8.9375 C 4.765625 -8.9375 5.460938 -8.765625 6.015625 -8.421875 C 6.578125 -8.078125 6.957031 -7.460938 7.15625 -6.578125 L 5.671875 -6.578125 C 5.503906 -7.066406 5.269531 -7.390625 4.96875 -7.546875 C 4.675781 -7.710938 4.3125 -7.796875 3.875 -7.796875 C 3.4375 -7.796875 3.066406 -7.703125 2.765625 -7.515625 C 2.441406 -7.316406 2.28125 -7.023438 2.28125 -6.640625 C 2.28125 -6.242188 2.414062 -5.953125 2.6875 -5.765625 C 2.9375 -5.585938 3.253906 -5.4375 3.640625 -5.3125 C 4.023438 -5.1875 4.441406 -5.078125 4.890625 -4.984375 C 5.328125 -4.878906 5.742188 -4.734375 6.140625 -4.546875 C 7.046875 -4.128906 7.5 -3.445312 7.5 -2.5 C 7.5 -1.5625 7.160156 -0.867188 6.484375 -0.421875 C 6.140625 -0.191406 5.757812 -0.0195312 5.34375 0.09375 C 4.945312 0.207031 4.507812 0.265625 4.03125 0.265625 C 2.007812 0.265625 0.84375 -0.632812 0.53125 -2.4375 L 2 -2.4375 C 2.144531 -1.875 2.398438 -1.476562 2.765625 -1.25 Z M 2.765625 -1.25 "/></g></g></g><g fill="#fefefe" fill-opacity="1"><g transform="translate(196.092259, 219.113878)"><g><path d="M 0.390625 -7.453125 L 0.390625 -8.75 L 2.578125 -8.75 L 2.578125 -12.140625 L 3.96875 -12.140625 L 3.96875 -8.75 L 6.140625 -8.75 L 6.140625 -7.453125 L 3.96875 -7.453125 L 3.96875 0 L 2.578125 0 L 2.578125 -7.453125 Z M 0.390625 -7.453125 "/></g></g></g><g fill="#fefefe" fill-opacity="1"><g transform="translate(202.631127, 219.113878)"><g><path d="M 7.53125 -1.484375 C 6.882812 -0.378906 5.910156 0.171875 4.609375 0.171875 C 3.628906 0.171875 2.863281 -0.148438 2.3125 -0.796875 C 1.757812 -1.441406 1.484375 -2.269531 1.484375 -3.28125 L 1.484375 -8.75 L 2.875 -8.75 L 2.875 -3.28125 C 2.875 -2.707031 3.007812 -2.222656 3.28125 -1.828125 C 3.53125 -1.421875 3.953125 -1.21875 4.546875 -1.21875 C 5.640625 -1.21875 6.410156 -1.5625 6.859375 -2.25 C 7.304688 -2.925781 7.53125 -3.875 7.53125 -5.09375 L 7.53125 -8.75 L 8.921875 -8.75 L 8.921875 0 L 7.53125 0 Z M 7.53125 -1.484375 "/></g></g></g><g fill="#fefefe" fill-opacity="1"><g transform="translate(212.747497, 219.113878)"><g><path d="M 8.453125 -4.375 C 8.453125 -5.21875 8.160156 -5.957031 7.578125 -6.59375 C 6.972656 -7.226562 6.234375 -7.546875 5.359375 -7.546875 C 4.484375 -7.546875 3.757812 -7.226562 3.1875 -6.59375 C 2.582031 -5.957031 2.28125 -5.21875 2.28125 -4.375 C 2.28125 -3.519531 2.582031 -2.773438 3.1875 -2.140625 C 3.757812 -1.503906 4.484375 -1.1875 5.359375 -1.1875 C 6.234375 -1.1875 6.972656 -1.503906 7.578125 -2.140625 C 8.160156 -2.773438 8.453125 -3.519531 8.453125 -4.375 Z M 9.84375 0 L 8.453125 0 L 8.453125 -1.484375 C 8.367188 -1.378906 8.285156 -1.28125 8.203125 -1.1875 C 7.367188 -0.257812 6.347656 0.203125 5.140625 0.203125 C 3.941406 0.203125 2.929688 -0.257812 2.109375 -1.1875 C 1.296875 -2.09375 0.890625 -3.15625 0.890625 -4.375 C 0.890625 -5.59375 1.296875 -6.648438 2.109375 -7.546875 C 2.929688 -8.472656 3.941406 -8.9375 5.140625 -8.9375 C 6.347656 -8.9375 7.367188 -8.472656 8.203125 -7.546875 C 8.285156 -7.453125 8.367188 -7.351562 8.453125 -7.25 L 8.453125 -14.90625 L 9.84375 -14.90625 Z M 9.84375 0 "/></g></g></g><g fill="#fefefe" fill-opacity="1"><g transform="translate(224.076243, 219.113878)"><g><path d="M 2.609375 4.96875 L 0.921875 4.96875 L 3.859375 -1.4375 L 0.203125 -8.75 L 1.78125 -8.75 L 4.59375 -2.875 L 7.09375 -8.75 L 8.640625 -8.75 Z M 2.609375 4.96875 "/></g></g></g><g fill="#fefefe" fill-opacity="1"><g transform="translate(232.523116, 219.113878)"><g><path d="M 2.640625 0.203125 C 2.335938 0.203125 2.070312 0.0859375 1.84375 -0.140625 C 1.601562 -0.347656 1.484375 -0.609375 1.484375 -0.921875 C 1.484375 -1.222656 1.597656 -1.484375 1.828125 -1.703125 C 2.054688 -1.929688 2.328125 -2.046875 2.640625 -2.046875 C 2.960938 -2.046875 3.242188 -1.941406 3.484375 -1.734375 C 3.703125 -1.503906 3.8125 -1.238281 3.8125 -0.9375 C 3.8125 -0.613281 3.691406 -0.347656 3.453125 -0.140625 C 3.210938 0.0859375 2.941406 0.203125 2.640625 0.203125 Z M 2.640625 0.203125 "/></g></g></g></svg>