<svg xmlns="http://www.w3.org/2000/svg" xmlns:xlink="http://www.w3.org/1999/xlink" width="500" zoomAndPan="magnify" viewBox="0 0 375 374.999991" height="500" preserveAspectRatio="xMidYMid meet" version="1.0"><defs><g/><clipPath id="646fa458c9"><path d="M 2 24.828125 L 372 24.828125 L 372 350 L 2 350 Z M 2 24.828125 " clip-rule="nonzero"/></clipPath></defs><rect x="-37.5" width="450" fill="#ffffff" y="-37.499999" height="449.999989" fill-opacity="1"/><rect x="-37.5" width="450" fill="#ff00ae" y="-37.499999" height="449.999989" fill-opacity="1"/><g fill="#000000" fill-opacity="1"><g transform="translate(182.537102, 193.124987)"><g><path d="M 1.5 0 L 1.5 -12.078125 L 2.78125 -12.078125 L 2.78125 -7.390625 L 2.9375 -7.359375 C 3.550781 -8.304688 4.441406 -8.78125 5.609375 -8.78125 C 6.640625 -8.78125 7.390625 -8.515625 7.859375 -7.984375 C 8.328125 -7.460938 8.5625 -6.648438 8.5625 -5.546875 L 8.5625 0 L 7.28125 0 L 7.28125 -5.515625 C 7.28125 -6.035156 7.210938 -6.453125 7.078125 -6.765625 C 6.953125 -7.085938 6.75 -7.316406 6.46875 -7.453125 C 6.1875 -7.597656 5.820312 -7.671875 5.375 -7.671875 C 4.59375 -7.671875 3.960938 -7.414062 3.484375 -6.90625 C 3.015625 -6.40625 2.78125 -5.578125 2.78125 -4.421875 L 2.78125 0 Z M 1.5 0 "/></g></g></g><g clip-path="url(#646fa458c9)"><path fill="#6f167d" d="M 165.480469 39.222656 C 145.714844 73.773438 96.886719 160.230469 57.65625 229.707031 L 5.75 321.546875 C 1.082031 329.765625 2.824219 336.265625 4.277344 339.410156 C 7.21875 345.773438 13.5 348.949219 18.390625 349.804688 L 19.378906 349.972656 L 354.328125 349.980469 L 353.628906 349.957031 C 358.882812 350.277344 365.859375 348.386719 369.667969 342.117188 C 372.105469 338.09375 373.859375 331.25 368.3125 321.519531 L 264.605469 140.324219 L 207.21875 40.097656 C 200.03125 27.527344 191.691406 24.882812 185.960938 24.882812 C 180.367188 24.882812 172.269531 27.367188 165.484375 39.222656 L 165.476562 39.222656 Z M 78.074219 241.609375 C 117.296875 172.160156 166.101562 85.734375 185.835938 51.234375 L 186.074219 50.859375 C 186.324219 51.242188 186.570312 51.597656 186.855469 52.101562 L 244.257812 152.347656 C 244.257812 152.347656 335.84375 312.382812 343.679688 326.066406 L 30.339844 326.058594 L 78.070312 241.609375 " fill-opacity="1" fill-rule="evenodd"/></g><path fill="#6f167d" d="M 187.367188 308.71875 C 197.515625 308.71875 205.738281 300.203125 205.738281 289.703125 C 205.738281 279.214844 197.515625 270.699219 187.367188 270.699219 C 177.203125 270.699219 168.980469 279.214844 168.980469 289.703125 C 168.980469 300.203125 177.203125 308.71875 187.367188 308.71875 " fill-opacity="1" fill-rule="evenodd"/><path fill="#6f167d" d="M 187.367188 122.472656 C 202.027344 122.472656 215.496094 136.339844 213.910156 149.933594 L 201.355469 245.550781 C 200.132812 253.90625 195.089844 260.019531 187.367188 260.019531 C 179.640625 260.019531 174.582031 253.90625 173.375 245.550781 L 160.816406 149.933594 C 159.222656 136.339844 172.699219 122.472656 187.367188 122.472656 " fill-opacity="1" fill-rule="evenodd"/></svg>