<svg xmlns="http://www.w3.org/2000/svg" xmlns:xlink="http://www.w3.org/1999/xlink" width="500" zoomAndPan="magnify" viewBox="0 0 375 374.999991" height="500" preserveAspectRatio="xMidYMid meet" version="1.0"><defs><g/><clipPath id="14d7a044f5"><path d="M 12 13.265625 L 359.777344 13.265625 L 359.777344 360 L 12 360 Z M 12 13.265625 " clip-rule="nonzero"/></clipPath></defs><rect x="-37.5" width="450" fill="#ffffff" y="-37.499999" height="449.999989" fill-opacity="1"/><rect x="-37.5" width="450" fill="#ff00ae" y="-37.499999" height="449.999989" fill-opacity="1"/><g fill="#000000" fill-opacity="1"><g transform="translate(182.537102, 193.124987)"><g><path d="M 1.5 0 L 1.5 -12.078125 L 2.78125 -12.078125 L 2.78125 -7.390625 L 2.9375 -7.359375 C 3.550781 -8.304688 4.441406 -8.78125 5.609375 -8.78125 C 6.640625 -8.78125 7.390625 -8.515625 7.859375 -7.984375 C 8.328125 -7.460938 8.5625 -6.648438 8.5625 -5.546875 L 8.5625 0 L 7.28125 0 L 7.28125 -5.515625 C 7.28125 -6.035156 7.210938 -6.453125 7.078125 -6.765625 C 6.953125 -7.085938 6.75 -7.316406 6.46875 -7.453125 C 6.1875 -7.597656 5.820312 -7.671875 5.375 -7.671875 C 4.59375 -7.671875 3.960938 -7.414062 3.484375 -6.90625 C 3.015625 -6.40625 2.78125 -5.578125 2.78125 -4.421875 L 2.78125 0 Z M 1.5 0 "/></g></g></g><g clip-path="url(#14d7a044f5)"><path fill="#6f167d" d="M 287.269531 184.070312 C 298.375 184.070312 308.667969 179.058594 315.578125 170.324219 C 344.902344 133.140625 359.734375 104.695312 359.734375 85.9375 C 359.734375 45.980469 327.226562 13.402344 287.269531 13.402344 C 247.308594 13.402344 214.800781 45.980469 214.800781 86.003906 C 214.800781 104.765625 229.632812 133.140625 258.957031 170.390625 C 265.867188 179.058594 276.160156 184.070312 287.269531 184.070312 Z M 287.269531 40.492188 C 312.257812 40.492188 332.644531 60.878906 332.644531 86.003906 C 332.644531 95.148438 322.550781 117.699219 294.242188 153.59375 C 290.519531 158.132812 283.949219 158.199219 280.222656 153.59375 C 251.914062 117.699219 241.824219 95.148438 241.824219 86.003906 C 241.890625 60.878906 262.210938 40.492188 287.269531 40.492188 Z M 188.996094 80.316406 C 189.742188 87.765625 184.324219 94.402344 176.875 95.148438 C 100.210938 102.460938 66.484375 197.820312 121.273438 251.863281 C 167.460938 299.542969 251.101562 280.78125 273.25 218.679688 C 275.820312 211.636719 283.609375 208.046875 290.652344 210.6875 C 297.699219 213.261719 301.285156 221.050781 298.644531 228.09375 C 249.339844 351.757812 70.273438 320.199219 67.09375 186.78125 C 66.007812 127.25 114.839844 73.203125 174.097656 68.191406 C 181.546875 67.449219 188.183594 72.867188 188.996094 80.316406 Z M 186.355469 169.847656 C 195.703125 169.847656 203.289062 177.433594 203.289062 186.78125 C 202.40625 209.265625 170.304688 209.265625 169.425781 186.78125 C 169.425781 177.433594 177.011719 169.847656 186.355469 169.847656 Z M 349.441406 247.054688 C 307.179688 364.425781 149.109375 398.894531 62.554688 308.347656 C -40.523438 203.441406 27.132812 24.304688 173.828125 13.808594 C 181.277344 13.265625 187.777344 18.886719 188.320312 26.339844 C 188.863281 33.789062 183.242188 40.289062 175.792969 40.832031 C 100.140625 46.25 40.476562 109.910156 40.070312 185.832031 C 39.59375 266.019531 105.492188 332.117188 185.679688 333.066406 C 246.972656 333.066406 302.777344 294.871094 324.042969 237.574219 C 326.617188 230.53125 334.472656 227.007812 341.449219 229.582031 C 348.421875 232.222656 352.011719 240.011719 349.441406 247.054688 Z M 287.269531 67.582031 C 296.613281 67.582031 304.199219 75.167969 304.199219 84.515625 C 303.320312 107 271.214844 107 270.335938 84.515625 C 270.335938 75.167969 277.921875 67.582031 287.269531 67.582031 Z M 247.785156 209.128906 C 250.355469 202.085938 246.835938 194.296875 239.792969 191.722656 C 232.75 189.148438 224.960938 192.671875 222.386719 199.714844 C 212.972656 225.246094 178.769531 233.441406 159.539062 213.597656 C 138.40625 192.875 149.175781 156.507812 177.890625 149.871094 C 195.230469 145.0625 189.335938 120.070312 171.726562 123.457031 C 122.355469 134.96875 104.207031 196.871094 140.371094 232.699219 C 152.695312 245.023438 169.019531 251.796875 186.355469 251.796875 C 213.648438 251.796875 238.371094 234.660156 247.785156 209.128906 Z M 247.785156 209.128906 " fill-opacity="1" fill-rule="nonzero"/></g></svg>